<?xml version="1.0" encoding="utf-8"?>
<!-- Generator: Adobe Illustrator 23.0.6, SVG Export Plug-In . SVG Version: 6.00 Build 0)  -->
<svg version="1.1" id="Layer_1" xmlns="http://www.w3.org/2000/svg" xmlns:xlink="http://www.w3.org/1999/xlink" x="0px" y="0px"
	 viewBox="0 0 600 600" style="enable-background:new 0 0 600 600;" xml:space="preserve">
<style type="text/css">
	.st0{fill:#FFFFFF;}
	.st1{fill-rule:evenodd;clip-rule:evenodd;fill:#FFFFFF;}
</style>
<g>
	<path class="st0" d="M300.42,141.73v0.05l-0.07-0.05L86.05,182.8c0,0,0,291.51,214.34,403.71
		C514.73,474.31,514.73,182.8,514.73,182.8L300.42,141.73z M300.39,558.91C112.35,460.64,112.35,205.3,112.35,205.3l188.01-35.98
		l0.06,0.04v-0.04l188.01,35.98C488.43,205.3,488.43,460.64,300.39,558.91z"/>
	<path class="st0" d="M300.42,141.73v0.05l-0.07-0.05L86.05,182.8c0,0,0,291.51,214.34,403.71
		C514.73,474.31,514.73,182.8,514.73,182.8L300.42,141.73z M300.39,558.91C112.35,460.64,112.35,205.3,112.35,205.3l188.01-35.98
		l0.06,0.04v-0.04l188.01,35.98C488.43,205.3,488.43,460.64,300.39,558.91z"/>
	<g>
		<path class="st1" d="M321.12,484.17c-2.6,0-3.93,2.61-4.56,5.88c-3.13-3.27-4.42-7.84-4.42-11.76c2.46,0,4.57,0.98,7.02,2.45
			c0-4.25-3.59-6.37-7.02-6.37c0-5.54,5.39-10.93,12.9-10.93c11.93,0,16.34,6.7,16.34,17.47c6.36-3.76,12.25-13.56,12.25-22.71
			c0-9.14-7.2-17.64-16.34-17.64c-13.38,0-18.94,5.06-24.99,13.23c-4.73,6.36-6.05,16.65-6.05,20.58h-2.59
			c0-9.31,4.23-18.61,8.48-26.62c1.96-3.76,4.25-8.33,4.25-12.41c0-4.9-2.28-10.3-5.55-16.18c-3.1-5.72-7.51-14.2-10.45-21.39
			c-2.94,7.19-7.35,15.67-10.46,21.39c-3.26,5.88-5.55,11.28-5.55,16.18c0,4.08,2.29,8.65,4.25,12.41
			c4.24,8.01,8.49,17.31,8.49,26.62h-2.6c0-3.92-1.3-14.22-6.05-20.58c-6.05-8.17-11.6-13.23-24.98-13.23
			c-9.15,0-16.33,8.49-16.33,17.64c0,9.14,5.89,18.94,12.25,22.71c0-10.77,4.41-17.47,16.33-17.47c7.53,0,12.9,5.39,12.9,10.93
			c-3.42,0-7.02,2.12-7.02,6.37c2.44-1.47,4.56-2.45,7.02-2.45c0,3.92-1.3,8.49-4.41,11.76c-0.65-3.27-1.96-5.88-4.57-5.88
			c-3.11,0-6.04,3.43-6.04,7.18c0,3.93,2.29,7.02,6.21,7.02c6.54,0,13.4-8.31,14.05-20.07h3.26c0,4.08-0.32,7.35-1.29,9.8
			c-0.67,1.79-1.3,3.42-1.3,5.06c0,2.28,3.27,10.45,5.88,16.33c2.61-5.88,5.87-14.05,5.87-16.33c0-1.64-0.65-3.27-1.29-5.06
			c-0.98-2.45-1.3-5.72-1.3-9.8h3.26c0.65,11.76,7.5,20.07,14.04,20.07c3.92,0,6.21-3.09,6.21-7.02
			C327.17,487.6,324.24,484.17,321.12,484.17z"/>
	</g>
	<path class="st0" d="M422.38,441.79"/>
	<g>
		<polygon class="st0" points="271.24,135.24 300.39,76.18 329.54,135.24 358.75,140.84 300.39,22.59 242.03,140.84 		"/>
		<path class="st0" d="M522.1,228.95c-0.9,7.23-2,15.03-3.33,23.28l29.93,4.35l-37.86,36.9c-3.25,14.45-7.19,29.67-11.94,45.34
			L600,240.27L522.1,228.95z"/>
		<path class="st0" d="M89.94,293.49l-37.86-36.9l29.93-4.35c-1.32-8.25-2.42-16.05-3.33-23.28l-77.9,11.32l101.11,98.55
			C97.13,323.16,93.19,307.94,89.94,293.49z"/>
	</g>
	<g>
		<g>
			<path class="st0" d="M142.66,236.91c-0.09-0.39,0.07-0.63,0.46-0.71l1.61-0.35l23.35-5.63c2.8-0.71,5.86-1.43,9.18-2.16
				l9.14-1.99c8.48-1.85,14.92-2.92,19.32-3.22c4.4-0.3,8.75-0.47,13.06-0.51c4.3-0.04,9.11,0.94,14.42,2.94
				c5.31,2.01,10.14,4.78,14.49,8.32c9.21,7.59,14.97,16.69,17.29,27.31c2.32,10.62,1.62,20.75-2.1,30.39
				c-5.32,13.97-15.15,24.49-29.49,31.55c-4.57,2.22-9.39,3.89-14.45,4.99l-53.28,11.62c-0.39,0.08-0.63-0.07-0.71-0.46l-0.45-2.05
				c-0.09-0.39,0.07-0.63,0.46-0.71l1.61-0.35c8.87-1.93,12.69-5.73,11.45-11.38l-17.47-80.1c-0.6-2.73-2.09-4.56-4.49-5.49
				c-2.4-0.93-4.91-1.11-7.54-0.54l-4.68,1.02c-0.39,0.08-0.63-0.07-0.71-0.46L142.66,236.91z M174.71,232.22
				c-1.22,0.27-1.68,1.06-1.4,2.37l19.5,89.38c0.79,3.61,4.58,4.74,11.39,3.41c2.01-0.39,4.11-0.82,6.3-1.3
				c15.54-3.39,26.81-10.42,33.8-21.08c6.99-10.66,8.9-23.24,5.74-37.73c-3.16-14.49-9.84-25.41-20.05-32.76
				c-10.2-7.34-22-9.56-35.4-6.63L174.71,232.22z"/>
			<path class="st0" d="M347.22,216.69c0.5,0.03,0.71,0.6,0.64,1.69l0.94,16.02c0.14,1.01,0.2,1.65,0.18,1.92
				c-0.02,0.27-0.41,0.39-1.18,0.34s-1.25-0.18-1.44-0.39c-0.19-0.21-0.37-0.56-0.53-1.05c-0.17-0.49-0.37-1.04-0.61-1.65
				c-0.24-0.61-0.48-1.23-0.75-1.85c-0.9-2.35-2.4-4.72-4.5-7.1c-5.14-5.62-11.15-8.65-18.02-9.08c-4.13-0.26-8.12,0.84-11.97,3.29
				c-3.85,2.46-5.89,5.51-6.12,9.17c-0.23,3.66,0.25,6.87,1.45,9.65c1.2,2.77,2.85,5.38,4.94,7.81c2.1,2.43,4.52,4.78,7.28,7.05
				c2.75,2.27,5.56,4.57,8.41,6.9c7.57,6.02,12.89,11.11,15.98,15.25c4.84,6.4,7.25,13.4,7.22,20.99
				c-0.53,8.46-4.2,15.01-11.02,19.66c-6.81,4.64-14.53,6.69-23.14,6.15c-5.52-0.35-9.88-1.18-13.07-2.51
				c-3.19-1.32-5.39-2.28-6.6-2.85c-1.21-0.58-2.11-0.88-2.68-0.92c-0.57-0.04-0.93-0.03-1.09,0.01l-3.71,0.52
				c-0.65-0.04-1.01-0.59-1.1-1.64c-0.67-12.43-0.98-19.04-0.93-19.81c0.05-0.77,0.14-1.29,0.29-1.56c0.14-0.27,0.49-0.38,1.03-0.35
				c1.39,0.09,2.54,2.16,3.43,6.21c4.52,11.53,12.85,17.67,25,18.44c5.57,0.35,10.45-1.04,14.62-4.18
				c4.17-3.13,6.42-7.42,6.77-12.84c0.54-8.66-4.12-17.05-14.01-25.17c-2.81-2.28-6.85-5.45-12.14-9.53
				c-5.29-4.08-9.46-8.09-12.51-12.03c-4.76-6.1-6.92-12.69-6.48-19.78c0.45-7.09,3.64-12.72,9.57-16.9
				c5.93-4.17,12.56-6.03,19.87-5.57c3.78,0.24,7.91,1.15,12.38,2.73c4.47,1.58,7.59,2.65,9.35,3.21L347.22,216.69z"/>
			<path class="st0" d="M427.94,282.58c6.34,2.1,10.54,0.05,12.59-6.16c0.13-0.38,0.38-0.51,0.76-0.38l1.71,0.56
				c0.38,0.13,0.5,0.38,0.38,0.76l-8.74,26.42c-0.13,0.38-0.38,0.51-0.76,0.38l-1.71-0.56c-0.38-0.13-0.51-0.38-0.38-0.76
				c1.44-4.36,1.2-7.77-0.71-10.24c-1.03-1.34-2.77-2.41-5.24-3.23l-27.98-9.25c-1.14-0.38-1.92,0.08-2.34,1.35l-12.07,36.51
				c-1.06,3.22,0.08,6.24,3.43,9.05c3.35,2.81,5.53,4.39,6.55,4.73c1.02,0.34,1.46,0.69,1.34,1.07l-0.56,1.71
				c-0.13,0.38-0.38,0.5-0.76,0.38l-38.78-12.82c-0.38-0.13-0.51-0.38-0.38-0.76l0.56-1.7c0.13-0.38,0.59-0.43,1.4-0.17
				c0.8,0.27,2.19,0.3,4.14,0.11c1.95-0.19,3.83-0.82,5.62-1.88c1.8-1.06,3.05-2.66,3.75-4.79l25.36-76.7
				c1.02-3.08,0.11-5.82-2.72-8.23c-1.63-1.43-3.37-2.45-5.21-3.06l-0.28-0.09c-0.38-0.13-0.51-0.38-0.38-0.76l0.56-1.7
				c0.13-0.38,0.38-0.51,0.76-0.38l66.97,22.14c0.54,0.28,0.92,0.55,1.15,0.81c0.23,0.26,0.23,0.72,0.01,1.38l-5.68,17.19
				c-0.19,0.57-0.39,0.9-0.6,0.98c-0.21,0.09-0.53,0.06-0.96-0.08l-0.85-0.28c-0.08-0.08,0.03-1.47,0.32-4.19
				c0.29-2.71,0.1-4.94-0.58-6.69c-1.25-2.72-3.07-4.61-5.45-5.66c-0.96-0.42-2.16-0.87-3.58-1.34l-26.92-8.9
				c-0.95-0.31-1.58,0-1.89,0.95l-10.87,32.88c-0.36,1.09,0.03,1.82,1.16,2.2L427.94,282.58z"/>
		</g>
	</g>
	<polygon class="st0" points="246.86,352.33 250.83,364.53 263.66,364.53 253.28,372.07 257.24,384.28 246.86,376.74 236.48,384.28 
		240.44,372.07 230.06,364.53 242.9,364.53 	"/>
	<polygon class="st0" points="193.95,365.63 197.92,377.83 210.75,377.83 200.37,385.37 204.33,397.58 193.95,390.03 183.57,397.58 
		187.54,385.37 177.16,377.83 189.99,377.83 	"/>
	<polygon class="st0" points="352.68,352.33 356.64,364.53 369.47,364.53 359.09,372.07 363.06,384.28 352.68,376.74 342.29,384.28 
		346.26,372.07 335.88,364.53 348.71,364.53 	"/>
	<polygon class="st0" points="299.77,345.69 303.73,357.89 316.56,357.89 306.18,365.43 310.15,377.64 299.77,370.1 289.39,377.64 
		293.35,365.43 282.97,357.89 295.8,357.89 	"/>
	<polygon class="st0" points="405.58,365.63 409.55,377.83 422.38,377.83 412,385.37 415.96,397.58 405.58,390.03 395.2,397.58 
		399.17,385.37 388.79,377.83 401.62,377.83 	"/>
</g>
</svg>
