<?xml version="1.0" encoding="utf-8"?>
<!-- Generator: Adobe Illustrator 23.0.3, SVG Export Plug-In . SVG Version: 6.00 Build 0)  -->
<svg version="1.1" id="Layer_1" xmlns="http://www.w3.org/2000/svg" xmlns:xlink="http://www.w3.org/1999/xlink" x="0px" y="0px"
	 viewBox="0 0 432 432" style="enable-background:new 0 0 432 432;" xml:space="preserve">
<style type="text/css">
	.st0{fill:#FFFFFF;}
</style>
<polygon class="st0" points="64.98,72 7.67,72 0,72 0,79.67 0,136.98 7.67,136.98 7.67,79.67 64.98,79.67 "/>
<polygon class="st0" points="432,136.98 432,79.67 432,72 424.33,72 367.02,72 367.02,79.67 424.33,79.67 424.33,136.98 "/>
<polygon class="st0" points="367.02,432 424.33,432 432,432 432,424.33 432,367.02 424.33,367.02 424.33,424.33 367.02,424.33 "/>
<polygon class="st0" points="0,367.02 0,424.33 0,432 7.67,432 64.98,432 64.98,424.33 7.67,424.33 7.67,367.02 "/>
</svg>
